# 3ds Max Wavefront OBJ Exporter v0.97b - (c)2007 guruware
# 创建的文件:02.06.2018 00:55:49

mtllib MTMK.mtl

#
# object pCube1
#

v  5.5565 -3.2000 1.4065
v  -5.5565 -3.2000 1.4065
v  -5.5565 -3.2000 -1.4065
v  5.5565 -3.2000 -1.4065
v  -5.5565 3.1565 1.4500
v  -5.5565 -3.1565 1.4500
v  5.5565 -3.1565 1.4500
v  5.5565 3.1565 1.4500
v  -5.6000 -3.1565 -1.4065
v  -5.6000 -3.1565 1.4065
v  -5.6000 3.1565 1.4065
v  -5.6000 3.1565 -1.4065
v  5.6000 3.1565 1.4065
v  5.6000 -3.1565 1.4065
v  5.6000 -3.1565 -1.4065
v  5.6000 3.1565 -1.4065
v  -5.5565 3.2000 -1.4065
v  -5.5565 3.2000 1.4065
v  5.5565 3.2000 1.4065
v  5.5565 3.2000 -1.4065
v  -5.5565 -3.1565 -1.4500
v  -5.5565 3.1565 -1.4500
v  5.5565 3.1565 -1.4500
v  5.5565 -3.1565 -1.4500
v  -5.5873 -3.1873 -1.4065
v  -5.5873 -3.1873 1.4065
v  5.5565 -3.1873 1.4373
v  -5.5565 -3.1873 1.4373
v  -5.5873 3.1565 1.4373
v  -5.5873 -3.1565 1.4373
v  5.5873 -3.1873 -1.4065
v  5.5873 -3.1873 1.4065
v  5.5873 3.1565 1.4373
v  5.5873 -3.1565 1.4373
v  -5.5873 3.1873 -1.4065
v  -5.5873 3.1873 1.4065
v  5.5565 3.1873 1.4373
v  -5.5565 3.1873 1.4373
v  5.5873 3.1873 -1.4065
v  5.5873 3.1873 1.4065
v  -5.5873 -3.1565 -1.4373
v  -5.5873 3.1565 -1.4373
v  5.5565 3.1873 -1.4373
v  -5.5565 3.1873 -1.4373
v  5.5873 -3.1565 -1.4373
v  5.5873 3.1565 -1.4373
v  5.5565 -3.1873 -1.4373
v  -5.5565 -3.1873 -1.4373
v  -5.5813 -3.1813 1.4313
v  5.5813 -3.1813 1.4313
v  -5.5813 3.1813 1.4313
v  5.5813 3.1813 1.4313
v  -5.5813 3.1813 -1.4313
v  5.5813 3.1813 -1.4313
v  -5.5813 -3.1813 -1.4313
v  5.5813 -3.1813 -1.4313
# 56 vertices

vn 0.0011 -1.0000 0.0045
vn -0.0011 -1.0000 0.0045
vn -0.0011 -1.0000 -0.0045
vn 0.0011 -1.0000 -0.0045
vn -0.0011 0.0020 1.0000
vn -0.0011 -0.0020 1.0000
vn 0.0011 -0.0020 1.0000
vn 0.0011 0.0020 1.0000
vn -1.0000 -0.0020 -0.0045
vn -1.0000 -0.0020 0.0045
vn -1.0000 0.0020 0.0045
vn -1.0000 0.0020 -0.0045
vn 1.0000 0.0020 0.0045
vn 1.0000 -0.0020 0.0045
vn 1.0000 -0.0020 -0.0045
vn 1.0000 0.0020 -0.0045
vn -0.0011 1.0000 -0.0045
vn -0.0011 1.0000 0.0045
vn 0.0011 1.0000 0.0045
vn 0.0011 1.0000 -0.0045
vn -0.0011 -0.0020 -1.0000
vn -0.0011 0.0020 -1.0000
vn 0.0011 0.0020 -1.0000
vn 0.0011 -0.0020 -1.0000
vn -0.3825 -0.9240 -0.0028
vn -0.3825 -0.9240 0.0028
vn -0.9240 -0.3825 -0.0028
vn -0.9240 -0.3825 0.0028
vn 0.0007 -0.3826 0.9239
vn -0.0007 -0.3826 0.9239
vn 0.0007 -0.9239 0.3826
vn -0.0007 -0.9239 0.3826
vn -0.9239 0.0013 0.3826
vn -0.9239 -0.0013 0.3826
vn -0.3826 0.0013 0.9239
vn -0.3826 -0.0013 0.9239
vn 0.9240 -0.3825 -0.0028
vn 0.9240 -0.3825 0.0028
vn 0.3825 -0.9240 -0.0028
vn 0.3825 -0.9240 0.0028
vn 0.3826 0.0013 0.9239
vn 0.3826 -0.0013 0.9239
vn 0.9239 0.0013 0.3826
vn 0.9239 -0.0013 0.3826
vn -0.9240 0.3825 -0.0028
vn -0.9240 0.3825 0.0028
vn -0.3825 0.9240 -0.0028
vn -0.3825 0.9240 0.0028
vn 0.0007 0.9239 0.3826
vn -0.0007 0.9239 0.3826
vn 0.0007 0.3826 0.9239
vn -0.0007 0.3826 0.9239
vn 0.3825 0.9240 -0.0028
vn 0.3825 0.9240 0.0028
vn 0.9240 0.3825 -0.0028
vn 0.9240 0.3825 0.0028
vn -0.9239 -0.0013 -0.3826
vn -0.9239 0.0013 -0.3826
vn -0.3826 -0.0013 -0.9239
vn -0.3826 0.0013 -0.9239
vn 0.0007 0.3826 -0.9239
vn -0.0007 0.3826 -0.9239
vn 0.0007 0.9239 -0.3826
vn -0.0007 0.9239 -0.3826
vn 0.3826 -0.0013 -0.9239
vn 0.3826 0.0013 -0.9239
vn 0.9239 -0.0013 -0.3826
vn 0.9239 0.0013 -0.3826
vn 0.0007 -0.9239 -0.3826
vn -0.0007 -0.9239 -0.3826
vn 0.0007 -0.3826 -0.9239
vn -0.0007 -0.3826 -0.9239
vn -0.8816 -0.3338 0.3338
vn -0.3338 -0.8815 0.3338
vn -0.3338 -0.3338 0.8815
vn 0.3338 -0.8815 0.3338
vn 0.8816 -0.3338 0.3338
vn 0.3338 -0.3338 0.8815
vn -0.3338 0.8815 0.3338
vn -0.8816 0.3338 0.3338
vn -0.3338 0.3338 0.8815
vn 0.8816 0.3338 0.3338
vn 0.3338 0.8815 0.3338
vn 0.3338 0.3338 0.8815
vn -0.3338 0.3338 -0.8815
vn -0.8816 0.3338 -0.3338
vn -0.3338 0.8815 -0.3338
vn 0.8816 0.3338 -0.3338
vn 0.3338 0.3338 -0.8815
vn 0.3338 0.8815 -0.3338
vn -0.3338 -0.8815 -0.3338
vn -0.8816 -0.3338 -0.3338
vn -0.3338 -0.3338 -0.8815
vn 0.8816 -0.3338 -0.3338
vn 0.3338 -0.8815 -0.3338
vn 0.3338 -0.3338 -0.8815
# 96 vertex normals

vt 0.7908 0.9976 0.0000
vt 0.2079 0.9976 0.0000
vt 0.2079 0.8576 0.0000
vt 0.7908 0.8576 0.0000
vt 0.2086 0.3780 0.0000
vt 0.2086 0.0587 0.0000
vt 0.7905 0.0587 0.0000
vt 0.7905 0.3780 0.0000
vt 0.0609 0.5305 0.0000
vt 0.2031 0.5305 0.0000
vt 0.2031 0.8510 0.0000
vt 0.0609 0.8510 0.0000
vt 0.7968 0.8508 0.0000
vt 0.7968 0.5307 0.0000
vt 0.9389 0.5307 0.0000
vt 0.9389 0.8508 0.0000
vt 0.2089 0.5243 0.0000
vt 0.2089 0.3839 0.0000
vt 0.7905 0.3839 0.0000
vt 0.7905 0.5242 0.0000
vt 0.7910 0.5312 0.0000
vt 0.7910 0.8490 0.0000
vt 0.2084 0.8490 0.0000
vt 0.2084 0.5312 0.0000
vt 0.2061 0.8576 0.0000
vt 0.2062 0.9976 0.0000
vt 0.0609 0.5290 0.0000
vt 0.2031 0.5290 0.0000
vt 0.7905 0.0570 0.0000
vt 0.2086 0.0570 0.0000
vt 0.7908 0.9992 0.0000
vt 0.2079 0.9992 0.0000
vt 0.2047 0.8510 0.0000
vt 0.2047 0.5305 0.0000
vt 0.2069 0.3780 0.0000
vt 0.2069 0.0587 0.0000
vt 0.9389 0.5290 0.0000
vt 0.7968 0.5290 0.0000
vt 0.7925 0.8576 0.0000
vt 0.7925 0.9976 0.0000
vt 0.7923 0.3780 0.0000
vt 0.7923 0.0587 0.0000
vt 0.7952 0.8508 0.0000
vt 0.7952 0.5307 0.0000
vt 0.0609 0.8525 0.0000
vt 0.2031 0.8525 0.0000
vt 0.2071 0.5243 0.0000
vt 0.2071 0.3839 0.0000
vt 0.7905 0.3823 0.0000
vt 0.2089 0.3822 0.0000
vt 0.7905 0.3797 0.0000
vt 0.2086 0.3797 0.0000
vt 0.7922 0.5242 0.0000
vt 0.7922 0.3839 0.0000
vt 0.9389 0.8525 0.0000
vt 0.7968 0.8525 0.0000
vt 0.0593 0.5305 0.0000
vt 0.0593 0.8510 0.0000
vt 0.7927 0.5312 0.0000
vt 0.7927 0.8490 0.0000
vt 0.2084 0.8506 0.0000
vt 0.7910 0.8506 0.0000
vt 0.7905 0.5259 0.0000
vt 0.2089 0.5260 0.0000
vt 0.2066 0.5311 0.0000
vt 0.2066 0.8490 0.0000
vt 0.9405 0.5307 0.0000
vt 0.9405 0.8508 0.0000
vt 0.7908 0.8559 0.0000
vt 0.2079 0.8559 0.0000
vt 0.2084 0.5295 0.0000
vt 0.7910 0.5295 0.0000
vt 0.2044 0.5293 0.0000
vt 0.2064 0.9990 0.0000
vt 0.2072 0.0573 0.0000
vt 0.7923 0.9990 0.0000
vt 0.7954 0.5293 0.0000
vt 0.7920 0.0573 0.0000
vt 0.2074 0.3825 0.0000
vt 0.2044 0.8522 0.0000
vt 0.2072 0.3794 0.0000
vt 0.7954 0.8522 0.0000
vt 0.7919 0.3825 0.0000
vt 0.7920 0.3794 0.0000
vt 0.7924 0.8504 0.0000
vt 0.0596 0.8522 0.0000
vt 0.2074 0.5257 0.0000
vt 0.9403 0.8522 0.0000
vt 0.2069 0.8504 0.0000
vt 0.7919 0.5257 0.0000
vt 0.2064 0.8562 0.0000
vt 0.0596 0.5293 0.0000
vt 0.7924 0.5298 0.0000
vt 0.9403 0.5293 0.0000
vt 0.7923 0.8562 0.0000
vt 0.2069 0.5297 0.0000
# 96 texture coords

g pCube1
usemtl blinn1SG
s 1
f 1/1/1 2/2/2 3/3/3 4/4/4 
s 2
f 5/5/5 6/6/6 7/7/7 8/8/8 
s 3
f 9/9/9 10/10/10 11/11/11 12/12/12 
s 4
f 13/13/13 14/14/14 15/15/15 16/16/16 
s 5
f 17/17/17 18/18/18 19/19/19 20/20/20 
s 6
f 21/21/21 22/22/22 23/23/23 24/24/24 
s 1
f 25/25/25 3/3/3 2/2/2 26/26/26 
s 3
f 9/9/9 25/27/27 26/28/28 10/10/10 
s 2
f 27/29/29 7/7/7 6/6/6 28/30/30 
s 1
f 1/1/1 27/31/31 28/32/32 2/2/2 
s 3
f 29/33/33 11/11/11 10/10/10 30/34/34 
s 2
f 5/5/5 29/35/35 30/36/36 6/6/6 
s 4
f 31/37/37 15/15/15 14/14/14 32/38/38 
s 1
f 4/4/4 31/39/39 32/40/40 1/1/1 
s 2
f 33/41/41 8/8/8 7/7/7 34/42/42 
s 4
f 13/13/13 33/43/43 34/44/44 14/14/14 
s 3
f 35/45/45 12/12/12 11/11/11 36/46/46 
s 5
f 17/17/17 35/47/47 36/48/48 18/18/18 
f 37/49/49 19/19/19 18/18/18 38/50/50 
s 2
f 8/8/8 37/51/51 38/52/52 5/5/5 
s 5
f 39/53/53 20/20/20 19/19/19 40/54/54 
s 4
f 16/16/16 39/55/55 40/56/56 13/13/13 
s 3
f 41/57/57 9/9/9 12/12/12 42/58/58 
s 6
f 21/21/21 41/59/59 42/60/60 22/22/22 
f 43/61/61 23/23/23 22/22/22 44/62/62 
s 5
f 20/20/20 43/63/63 44/64/64 17/17/17 
s 6
f 45/65/65 24/24/24 23/23/23 46/66/66 
s 4
f 15/15/15 45/67/67 46/68/68 16/16/16 
s 1
f 47/69/69 4/4/4 3/3/3 48/70/70 
s 6
f 24/24/24 47/71/71 48/72/72 21/21/21 
s 3
f 26/28/28 49/73/73 30/34/34 10/10/10 
s 1
f 28/32/32 49/74/74 26/26/26 2/2/2 
s 2
f 30/36/36 49/75/75 28/30/30 6/6/6 
s 1
f 32/40/40 50/76/76 27/31/31 1/1/1 
s 4
f 34/44/44 50/77/77 32/38/38 14/14/14 
s 2
f 27/29/29 50/78/78 34/42/42 7/7/7 
s 5
f 36/48/48 51/79/79 38/50/50 18/18/18 
s 3
f 29/33/33 51/80/80 36/46/46 11/11/11 
s 2
f 38/52/52 51/81/81 29/35/35 5/5/5 
s 4
f 40/56/56 52/82/82 33/43/43 13/13/13 
s 5
f 37/49/49 52/83/83 40/54/54 19/19/19 
s 2
f 33/41/41 52/84/84 37/51/51 8/8/8 
s 6
f 42/60/60 53/85/85 44/62/62 22/22/22 
s 3
f 35/45/45 53/86/86 42/58/58 12/12/12 
s 5
f 44/64/64 53/87/87 35/47/47 17/17/17 
s 4
f 46/68/68 54/88/88 39/55/55 16/16/16 
s 6
f 43/61/61 54/89/89 46/66/66 23/23/23 
s 5
f 39/53/53 54/90/90 43/63/63 20/20/20 
s 1
f 25/25/25 55/91/91 48/70/70 3/3/3 
s 3
f 41/57/57 55/92/92 25/27/27 9/9/9 
s 6
f 48/72/72 55/93/93 41/59/59 21/21/21 
s 4
f 31/37/37 56/94/94 45/67/67 15/15/15 
s 1
f 47/69/69 56/95/95 31/39/39 4/4/4 
s 6
f 45/65/65 56/96/96 47/71/71 24/24/24 
# 54 polygons

